<svg xmlns="http://www.w3.org/2000/svg" viewBox="0 0 100 100" width="512" height="512"
     role="img" aria-label="Prospector">
    <title>Prospector</title>
    <g fill="#c8ff00">
        <path d="M15.4 16.6 C31.2 8.8 51.4 10.2 65.0 19.4 C75.4 26.8 81.4 37.0 83.0 47.6
                 L74.6 43.2 C72.0 36.2 66.4 28.4 57.8 23.2 C45.4 16.2 29.0 16.0 18.8 21.2 Z"/>
        <path d="M54.0 11.6 L65.2 16.0 L61.2 26.4 L50.0 22.0 Z"/>
        <path d="M56.8 21.8 L62.6 24.2 L38.4 62.0 L32.8 57.6 Z"/>
        <path d="M62.6 36.4 L95.8 84.8 L84.0 79.2 L79.2 69.6 L75.8 74.8 L68.4 58.0
                 L56.4 79.2 L44.6 79.2 Z"/>
        <path d="M33.2 50.6 L46.8 82.8 L34.0 82.8 L24.2 74.0 L21.4 78.4 L17.2 72.6
                 L13.2 80.6 L7.4 85.0 Z"/>
        <path d="M3.6 90.8 C29.6 79.6 70.4 79.6 96.4 90.8 C70.8 83.4 29.2 83.4 3.6 90.8 Z"/>
    </g>
</svg>
